<!DOCTYPE svg PUBLIC "-//W3C//DTD SVG 1.1//EN" "http://www.w3.org/Graphics/SVG/1.1/DTD/svg11.dtd">
<!-- Uploaded to: SVG Repo, www.svgrepo.com, Transformed by: SVG Repo Mixer Tools -->
<svg fill="#ffffff" width="800px" height="800px" viewBox="0 0 32.00 32.00" version="1.1" xmlns="http://www.w3.org/2000/svg" stroke="#ffffff">
<g id="SVGRepo_bgCarrier" stroke-width="0"/>
<g id="SVGRepo_tracerCarrier" stroke-linecap="round" stroke-linejoin="round" stroke="#CCCCCC" stroke-width="2.304"> <path d="M17.5 0h-11c-1.104 0-2 0.895-2 2v28c0 1.105 0.896 2 2 2h19c1.105 0 2-0.895 2-2v-20zM25.5 10.829v0.171h-9v-9h0.172zM6.5 30v-28h8v11h11v17h-19z"/> </g>
<g id="SVGRepo_iconCarrier"> <path d="M17.5 0h-11c-1.104 0-2 0.895-2 2v28c0 1.105 0.896 2 2 2h19c1.105 0 2-0.895 2-2v-20zM25.5 10.829v0.171h-9v-9h0.172zM6.5 30v-28h8v11h11v17h-19z"/> </g>
</svg>